<svg id="Layer_2" data-name="Layer 2" xmlns="http://www.w3.org/2000/svg" viewBox="0 0 480.5 82.68"><defs><style>.cls-1{fill:#006ca6;}</style></defs><title>ECMWF_Master_Logo_RGB_nostrap</title><path class="cls-1" d="M183.28,6.8V19.74H146.34v15h33.91v12H146.34V63.84h37.73V76.78H130.95V6.8h52.33Z" transform="translate(0)"/><path class="cls-1" d="M234.33,25.47a15.49,15.49,0,0,0-3.43-3.87,16.06,16.06,0,0,0-10.09-3.53,18,18,0,0,0-8.82,2,16.65,16.65,0,0,0-5.88,5.39,23.6,23.6,0,0,0-3.28,7.69,38.33,38.33,0,0,0-1,8.92,35.64,35.64,0,0,0,1,8.58,23.13,23.13,0,0,0,3.28,7.5A16.8,16.8,0,0,0,212,63.5a18,18,0,0,0,8.82,2q7.06,0,11-4.31a19.94,19.94,0,0,0,4.85-11.37h14.9a35.6,35.6,0,0,1-3,11.86,28.43,28.43,0,0,1-6.47,9,27.5,27.5,0,0,1-9.41,5.68,34.5,34.5,0,0,1-11.86,2,35.88,35.88,0,0,1-14.46-2.79,31,31,0,0,1-10.83-7.69,34.06,34.06,0,0,1-6.76-11.51,42.25,42.25,0,0,1-2.35-14.26,43.72,43.72,0,0,1,2.35-14.55,35,35,0,0,1,6.76-11.71A30.92,30.92,0,0,1,206.35,8,37.52,37.52,0,0,1,231.73,6.8a29.63,29.63,0,0,1,9.21,4.85,26.23,26.23,0,0,1,6.71,7.89A28.2,28.2,0,0,1,251,30.32h-14.9A12.58,12.58,0,0,0,234.33,25.47Z" transform="translate(0)"/><path class="cls-1" d="M279.37,6.8l16.37,48.12h0.2L311.42,6.8h21.66v70H318.67V27.19h-0.2L301.32,76.78H289.46l-17.15-49.1h-0.2v49.1H257.71V6.8h21.66Z" transform="translate(0)"/><path class="cls-1" d="M394,76.78L382.19,29.15H382L370.33,76.78H354.75l-18.52-70h15.39l11.07,47.63h0.2L375,6.8h14.41L401.4,55h0.2L413.06,6.8h15.09l-18.82,70H394Z" transform="translate(0)"/><path class="cls-1" d="M480.5,6.8V19.74H446.69V35.91H476v12h-29.3V76.78H431.31V6.8h49.2Z" transform="translate(0)"/><path class="cls-1" d="M0.4,46H34.81V36.68H0.4A27.1,27.1,0,0,0,.4,46Z" transform="translate(0)"/><path class="cls-1" d="M115,49.24a41,41,0,0,1-40,33.44A44,44,0,0,1,58.1,79a40.9,40.9,0,0,1-17.36,3.64A40.67,40.67,0,0,1,.76,49.4l25.09,0A17.47,17.47,0,0,0,41.77,59.64,18,18,0,0,0,58.36,47.81,17.68,17.68,0,0,0,91.12,49.3Z" transform="translate(0)"/><path class="cls-1" d="M115,33.44A41,41,0,0,0,74.94,0,43.08,43.08,0,0,0,58.1,3.69,40.19,40.19,0,0,0,40.74,0a40.66,40.66,0,0,0-40,33.28l25.09,0A17.46,17.46,0,0,1,41.77,23,18,18,0,0,1,58.36,34.86a17.69,17.69,0,0,1,32.77-1.48Z" transform="translate(0)"/></svg>